<?xml version="1.0" standalone="no"?>
<!DOCTYPE svg PUBLIC "-//W3C//DTD SVG 20010904//EN"
 "http://www.w3.org/TR/2001/REC-SVG-20010904/DTD/svg10.dtd">
<svg version="1.0" xmlns="http://www.w3.org/2000/svg"
 width="124.000000pt" height="124.000000pt" viewBox="0 0 124.000000 124.000000"
 preserveAspectRatio="xMidYMid meet">

<g transform="translate(0.000000,124.000000) scale(0.100000,-0.100000)"
fill="#000000" stroke="none">
<path d="M610 1081 l0 -128 -41 -7 c-136 -22 -250 -136 -274 -274 l-7 -42
-129 0 c-79 0 -129 -4 -129 -10 0 -6 50 -10 129 -10 l128 0 12 -58 c25 -130
137 -237 269 -258 l42 -7 0 -128 c0 -79 4 -129 10 -129 6 0 10 50 10 129 l0
128 43 7 c134 21 251 139 273 274 l7 42 128 0 c79 0 129 4 129 10 0 6 -50 10
-129 10 l-128 0 -7 43 c-21 134 -139 251 -274 273 l-42 7 0 128 c0 79 -4 129
-10 129 -6 0 -10 -50 -10 -129z m0 -301 l0 -150 -150 0 c-149 0 -150 0 -150
23 0 126 143 273 268 276 l32 1 0 -150z m145 121 c99 -46 175 -152 175 -243
l0 -28 -150 0 -150 0 0 150 0 150 33 0 c17 0 59 -13 92 -29z m-145 -441 l0
-150 -33 0 c-46 0 -149 53 -186 96 -42 47 -70 105 -78 159 l-6 45 152 0 151 0
0 -150z m320 118 c0 -42 -38 -124 -79 -171 -39 -44 -142 -97 -188 -97 l-33 0
0 150 0 150 150 0 150 0 0 -32z"/>
</g>
</svg>
